Coordinates
version=1
nRows=6
nColumns=63
inDegrees=yes

Units are S.I. units (second, meters, Newtons, ...)
If the header above contains a line with 'inDegrees', this indicates whether rotational values are in degrees (yes) or radians (no).

endheader
time	pelvis_tilt	pelvis_list	pelvis_rotation	pelvis_tx	pelvis_ty	pelvis_tz	hip_flexion_r	hip_adduction_r	hip_rotation_r	knee_angle_r	knee_angle_r_beta	ankle_angle_r	subtalar_angle_r	mtp_angle_r	hip_flexion_l	hip_adduction_l	hip_rotation_l	knee_angle_l	knee_angle_l_beta	ankle_angle_l	subtalar_angle_l	mtp_angle_l	L5_S1_Flex_Ext	L5_S1_Lat_Bending	L5_S1_axial_rotation	L4_L5_Flex_Ext	L4_L5_Lat_Bending	L4_L5_axial_rotation	L3_L4_Flex_Ext	L3_L4_Lat_Bending	L3_L4_axial_rotation	L2_L3_Flex_Ext	L2_L3_Lat_Bending	L2_L3_axial_rotation	L1_L2_Flex_Ext	L1_L2_Lat_Bending	L1_L2_axial_rotation	L1_T12_Flex_Ext	L1_T12_Lat_Bending	L1_T12_axial_rotation	Abs_r3	Abs_r2	Abs_r1	Abs_t1	Abs_t2	neck_flexion	neck_bending	neck_rotation	arm_flex_r	arm_add_r	arm_rot_r	elbow_flex_r	pro_sup_r	wrist_flex_r	wrist_dev_r	arm_flex_l	arm_add_l	arm_rot_l	elbow_flex_l	pro_sup_l	wrist_flex_l	wrist_dev_l
      1.31666667	     -5.28935699	     -3.89154749	     92.44905835	      0.24393568	      0.84946697	      0.68001645	      3.41327679	     -2.87930697	      0.04666612	      6.55542955	      0.11441383	     28.75294223	     -5.48149880	      0.00000000	      4.75762481	      2.42178085	     -3.34367708	      6.94985431	      0.12129784	     33.07180942	      7.66273696	      0.00000000	      0.35696129	     -0.24442032	     -0.58560373	      0.66291282	     -0.32507903	     -0.62220397	      0.58645171	     -0.59428357	     -0.62220397	      0.40797106	     -0.59428357	     -0.51240327	      0.33147426	     -0.49842192	     -0.47580303	      0.20396768	     -0.37860708	     -0.43920280	      2.54973883	     -2.76493157	     -3.25695229	      0.00000000	      0.00000000	     28.03811815	     10.73917884	      4.09052691	     17.32322496	     -7.18530094	     69.41014732	     43.36318143	     24.91565626	      5.73980022	     13.23481311	     15.83625618	    -10.60245409	     60.14672178	     46.32397743	     87.20238795	      8.29447828	     -5.95279730
      1.33333333	     -5.33372366	     -4.03536551	     92.50862494	      0.24394127	      0.84946874	      0.68017953	      3.71505763	     -2.91256193	      0.36971057	      6.82227125	      0.11907110	     28.70718544	     -6.06985954	      0.00000000	      4.99385329	      2.47236902	     -3.66771942	      7.09737989	      0.12387265	     33.09625956	      7.97385707	      0.00000000	      0.37829735	     -0.25406551	     -0.57749710	      0.70253600	     -0.33790712	     -0.61359067	      0.62150471	     -0.61773487	     -0.61359067	      0.43235604	     -0.61773487	     -0.50530996	      0.35128692	     -0.51809038	     -0.46921640	      0.21615910	     -0.39354747	     -0.43312283	      2.70214012	     -2.87403982	     -3.21186563	      0.00000000	      0.00000000	     28.02932444	     10.54810286	      3.68823371	     16.92413332	     -7.12856841	     68.37091835	     43.42275954	     24.92173596	      5.64865855	     13.27532617	     15.93476385	    -10.57781460	     60.26835291	     46.09288866	     87.84974930	      7.98641009	     -7.10275432
      1.35000000	     -5.24651278	     -3.93695195	     92.75116600	      0.24343244	      0.84972970	      0.67994462	      3.45087110	     -2.86618007	     -0.62813375	      6.59471174	      0.11509943	     28.71606135	     -4.90561075	      0.00000000	      4.80259119	      2.43893354	     -3.65693549	      7.00079448	      0.12218691	     32.76345294	      7.87940368	      0.00000000	      0.36370234	     -0.24165922	     -0.62038643	      0.67543161	     -0.32140676	     -0.65916058	      0.59752657	     -0.58757023	     -0.65916058	      0.41567540	     -0.58757023	     -0.54283813	      0.33773399	     -0.49279148	     -0.50406398	      0.20781952	     -0.37433013	     -0.46528982	      2.59788944	     -2.73369743	     -3.45040322	      0.00000000	      0.00000000	     28.04547467	     10.62332556	      3.86585084	     16.62968898	     -7.23168653	     67.70429085	     43.60139299	     25.79898754	      5.53817818	     13.18631570	     16.13168763	    -10.64172452	     60.79335160	     46.30959663	     86.42637480	      8.16970275	     -6.23629419
      1.36666667	     -5.12540805	     -4.11080329	     92.52476441	      0.24358736	      0.84937874	      0.68024844	      3.82466887	     -2.65222651	      0.85141570	      6.90987299	      0.12060003	     28.32016204	     -6.56999493	      0.00000000	      5.15681330	      2.25395958	     -4.78722978	      7.52212205	      0.13128580	     32.78932675	      8.55049725	      0.00000000	      0.38943475	     -0.22272888	     -0.57133308	      0.72321928	     -0.29622941	     -0.60704140	      0.63980236	     -0.54154300	     -0.60704140	      0.44508498	     -0.54154300	     -0.49991645	      0.36162911	     -0.45418873	     -0.46420813	      0.22252302	     -0.34500704	     -0.42849981	      2.78169350	     -2.51955365	     -3.17758321	      0.00000000	      0.00000000	     28.03215456	     10.35503015	      3.81586932	     16.03057582	     -7.18970728	     66.08158914	     43.77254941	     25.16815851	      4.96616663	     14.52262095	     15.75018672	    -10.28964237	     59.17384910	     45.93351340	     87.39167915	     10.45686397	     -6.50507394
      1.38333333	     -4.93263491	     -4.04730232	     92.65461987	      0.24330635	      0.84934785	      0.68038187	      3.58869833	     -2.30605995	      2.72989358	      6.62590530	      0.11564386	     27.31969112	     -9.33620507	      0.00000000	      5.18643610	      1.95839276	     -6.35150393	      7.90013249	      0.13788332	     32.79880447	     10.22574217	      0.00000000	      0.37871519	     -0.19983895	     -0.56821471	      0.70331198	     -0.26578580	     -0.60372813	      0.62219119	     -0.48588842	     -0.60372813	      0.43283359	     -0.48588842	     -0.49718787	      0.35167493	     -0.40751158	     -0.46167445	      0.21639786	     -0.30955053	     -0.42616103	      2.70512474	     -2.26061815	     -3.16023974	      0.00000000	      0.00000000	     28.03916096	     10.21139834	      3.65918655	     15.40535077	     -7.24161735	     64.43342852	     44.16952175	     25.97070737	      3.82871610	     15.14465502	     15.52379856	    -10.01317448	     57.97224306	     46.02533321	     86.72837433	     12.68887358	     -4.37660513
      1.40000000	     -4.75569941	     -4.01137546	     92.49024261	      0.24316117	      0.84930690	      0.68052918	      3.55380258	     -2.06725996	      3.35115419	      6.65097356	      0.11608139	     26.96373887	     -9.84380371	      0.00000000	      5.16980663	      1.75399253	     -7.15516444	      8.13344088	      0.14195532	     32.55028510	     10.44686594	      0.00000000	      0.37430035	     -0.17168876	     -0.49795232	      0.69511317	     -0.22834605	     -0.52907434	      0.61493804	     -0.41744405	     -0.52907434	      0.42778787	     -0.41744405	     -0.43570828	      0.34757530	     -0.35010772	     -0.40458626	      0.21387522	     -0.26594589	     -0.37346424	      2.67358994	     -1.94217758	     -2.76946143	      0.00000000	      0.00000000	     28.02844307	     10.09025544	      3.73350277	     14.97342948	     -7.38319672	     63.34411507	     44.29583244	     26.34358494	      3.90308095	     15.26886992	     15.55873711	     -9.73570196	     57.98968735	     45.85959908	     85.59262802	     13.13661565	     -3.63051704
